# xmcd
#
# Track frame offsets: 
#        150
#        16432
#        36502
#        54362
#        76205
#        94447
#        114744
#        131636
#        148087
#        167976
#        191913
#        208977
#        234846
#        250368
#
# Disc length: 3504 seconds
#
# Revision: 0
# Processed by: cddbd v1.5.2PL0 Copyright (c) Steve Scherf et al.
# Submitted via: ExactAudioCopy v1.3
#
DISCID=d20dae0e
DTITLE=Jack De Keyzer - 6 String Lover
DYEAR=2002
DGENRE=Electric Blues
TTITLE0=Deal Me In
TTITLE1=Soul Lover
TTITLE2=Pleasure Is My Business
TTITLE3=The Answer
TTITLE4=If You Were My Woman (And I Was Your Man)
TTITLE5=King Of The Blues
TTITLE6=Rock 'til We Drop
TTITLE7=Making Love To You
TTITLE8=It's In The Way You Love
TTITLE9=Funk This
TTITLE10=Jump Right To It
TTITLE11=Engine Trouble
TTITLE12=Drivin' Home
TTITLE13=6 String Lover
EXTD=
EXTT0=
EXTT1=
EXTT2=
EXTT3=
EXTT4=
EXTT5=
EXTT6=
EXTT7=
EXTT8=
EXTT9=
EXTT10=
EXTT11=
EXTT12=
EXTT13=
PLAYORDER=
